%TF.GenerationSoftware,KiCad,Pcbnew,8.0.3*%
%TF.CreationDate,2024-09-06T18:55:24+02:00*%
%TF.ProjectId,nixie_supply,6e697869-655f-4737-9570-706c792e6b69,rev?*%
%TF.SameCoordinates,Original*%
%TF.FileFunction,Copper,L2,Bot*%
%TF.FilePolarity,Positive*%
%FSLAX46Y46*%
G04 Gerber Fmt 4.6, Leading zero omitted, Abs format (unit mm)*
G04 Created by KiCad (PCBNEW 8.0.3) date 2024-09-06 18:55:24*
%MOMM*%
%LPD*%
G01*
G04 APERTURE LIST*
%TA.AperFunction,ComponentPad*%
%ADD10O,1.790700X3.581400*%
%TD*%
%TA.AperFunction,ComponentPad*%
%ADD11O,1.524000X3.048000*%
%TD*%
%TA.AperFunction,ViaPad*%
%ADD12C,1.006400*%
%TD*%
%TA.AperFunction,ViaPad*%
%ADD13C,1.000000*%
%TD*%
%TA.AperFunction,ViaPad*%
%ADD14C,1.016000*%
%TD*%
%TA.AperFunction,Conductor*%
%ADD15C,0.600000*%
%TD*%
G04 APERTURE END LIST*
D10*
%TO.P,J3,1*%
%TO.N,DGND*%
X161181100Y-119633600D03*
%TO.P,J3,2*%
%TO.N,VOUT*%
X166181100Y-119633600D03*
%TD*%
%TO.P,J1,1*%
%TO.N,PWR*%
X126681100Y-119633600D03*
%TO.P,J1,2*%
%TO.N,VCC*%
X131681100Y-119633600D03*
%TD*%
%TO.P,J2,1*%
%TO.N,DGND*%
X136981100Y-119633600D03*
%TO.P,J2,2*%
%TO.N,SHDN*%
X141981100Y-119633600D03*
%TD*%
D11*
%TO.P,T1,D*%
%TO.N,N$15*%
X147081100Y-103273600D03*
%TO.P,T1,G*%
%TO.N,EXT*%
X144541100Y-103273600D03*
%TO.P,T1,S*%
%TO.N,N$2*%
X149621100Y-103273600D03*
%TD*%
D12*
%TO.N,DGND*%
X153781100Y-110633600D03*
D13*
X139450000Y-111050000D03*
D12*
X152381100Y-109133600D03*
D14*
X146200000Y-120550000D03*
D12*
X153781100Y-109133600D03*
X169981100Y-93433600D03*
D13*
X140900000Y-111100000D03*
D12*
X169881100Y-102133600D03*
X155181100Y-112133600D03*
X169881100Y-106233600D03*
X155181100Y-109133600D03*
X169881100Y-104233600D03*
X152381100Y-110633600D03*
D14*
X130981100Y-112733600D03*
D12*
X169981100Y-95533600D03*
X155181100Y-110633600D03*
%TD*%
D15*
%TO.N,PWR*%
X126681100Y-119633600D02*
X126681100Y-118368900D01*
%TD*%
%TA.AperFunction,Conductor*%
%TO.N,VCC*%
G36*
X130582799Y-117653015D02*
G01*
X130628554Y-117705819D01*
X130638498Y-117774977D01*
X130616078Y-117830216D01*
X130487689Y-118006926D01*
X130387977Y-118202620D01*
X130387976Y-118202623D01*
X130320108Y-118411503D01*
X130285750Y-118628428D01*
X130285750Y-119233600D01*
X131236956Y-119233600D01*
X131203461Y-119267095D01*
X131124877Y-119403205D01*
X131084200Y-119555017D01*
X131084200Y-119712183D01*
X131124877Y-119863995D01*
X131203461Y-120000105D01*
X131236956Y-120033600D01*
X130285750Y-120033600D01*
X130285750Y-120638771D01*
X130320108Y-120855696D01*
X130387976Y-121064576D01*
X130387977Y-121064579D01*
X130487689Y-121260273D01*
X130616788Y-121437962D01*
X130772087Y-121593261D01*
X130949776Y-121722360D01*
X131145470Y-121822072D01*
X131145473Y-121822073D01*
X131281099Y-121866140D01*
X131281100Y-121866139D01*
X131281100Y-120077744D01*
X131314595Y-120111239D01*
X131450705Y-120189823D01*
X131602517Y-120230500D01*
X131759683Y-120230500D01*
X131911495Y-120189823D01*
X132047605Y-120111239D01*
X132081100Y-120077744D01*
X132081100Y-121866140D01*
X132216726Y-121822073D01*
X132216729Y-121822072D01*
X132412423Y-121722360D01*
X132590112Y-121593261D01*
X132745411Y-121437962D01*
X132874510Y-121260273D01*
X132974222Y-121064579D01*
X132974223Y-121064576D01*
X133042091Y-120855696D01*
X133076450Y-120638771D01*
X133076450Y-120033600D01*
X132125244Y-120033600D01*
X132158739Y-120000105D01*
X132237323Y-119863995D01*
X132278000Y-119712183D01*
X132278000Y-119555017D01*
X132237323Y-119403205D01*
X132158739Y-119267095D01*
X132125244Y-119233600D01*
X133076450Y-119233600D01*
X133076450Y-118628428D01*
X133042091Y-118411503D01*
X132974223Y-118202623D01*
X132974222Y-118202620D01*
X132874510Y-118006926D01*
X132746122Y-117830216D01*
X132722642Y-117764409D01*
X132738467Y-117696355D01*
X132788573Y-117647661D01*
X132846440Y-117633330D01*
X133426347Y-117633330D01*
X133493386Y-117653015D01*
X133539141Y-117705819D01*
X133550347Y-117757330D01*
X133550347Y-125879600D01*
X133530662Y-125946639D01*
X133477858Y-125992394D01*
X133426347Y-126003600D01*
X129824347Y-126003600D01*
X129757308Y-125983915D01*
X129711553Y-125931111D01*
X129700347Y-125879600D01*
X129700347Y-117757330D01*
X129720032Y-117690291D01*
X129772836Y-117644536D01*
X129824347Y-117633330D01*
X130515760Y-117633330D01*
X130582799Y-117653015D01*
G37*
%TD.AperFunction*%
%TD*%
%TA.AperFunction,Conductor*%
%TO.N,DGND*%
G36*
X135787691Y-118006923D02*
G01*
X135687977Y-118202620D01*
X135687976Y-118202623D01*
X135620108Y-118411503D01*
X135585750Y-118628428D01*
X135585750Y-119233600D01*
X136536956Y-119233600D01*
X136503461Y-119267095D01*
X136424877Y-119403205D01*
X136384200Y-119555017D01*
X136384200Y-119712183D01*
X136424877Y-119863995D01*
X136503461Y-120000105D01*
X136536956Y-120033600D01*
X135585750Y-120033600D01*
X135585750Y-120638771D01*
X135620108Y-120855696D01*
X135687976Y-121064576D01*
X135687977Y-121064579D01*
X135787689Y-121260273D01*
X135916788Y-121437962D01*
X136072087Y-121593261D01*
X136249776Y-121722360D01*
X136445470Y-121822072D01*
X136445473Y-121822073D01*
X136581099Y-121866140D01*
X136581100Y-121866139D01*
X136581100Y-120077744D01*
X136614595Y-120111239D01*
X136750705Y-120189823D01*
X136902517Y-120230500D01*
X137059683Y-120230500D01*
X137211495Y-120189823D01*
X137347605Y-120111239D01*
X137381100Y-120077744D01*
X137381100Y-121866140D01*
X137516726Y-121822073D01*
X137516729Y-121822072D01*
X137712423Y-121722360D01*
X137890112Y-121593261D01*
X138045411Y-121437962D01*
X138174510Y-121260273D01*
X138274222Y-121064579D01*
X138274223Y-121064576D01*
X138342091Y-120855696D01*
X138376450Y-120638771D01*
X138376450Y-120033600D01*
X137425244Y-120033600D01*
X137458739Y-120000105D01*
X137537323Y-119863995D01*
X137578000Y-119712183D01*
X137578000Y-119555017D01*
X137537323Y-119403205D01*
X137458739Y-119267095D01*
X137425244Y-119233600D01*
X138376450Y-119233600D01*
X138376450Y-118628428D01*
X138342091Y-118411503D01*
X138274223Y-118202623D01*
X138274222Y-118202620D01*
X138174508Y-118006923D01*
X138108932Y-117916665D01*
X139450174Y-117916665D01*
X139450174Y-126003600D01*
X134250174Y-126003600D01*
X134250174Y-117950000D01*
X135100174Y-117916665D01*
X135853268Y-117916665D01*
X135787691Y-118006923D01*
G37*
%TD.AperFunction*%
%TD*%
%TA.AperFunction,Conductor*%
%TO.N,SHDN*%
G36*
X140886620Y-117647807D02*
G01*
X140932375Y-117700611D01*
X140942319Y-117769769D01*
X140917782Y-117823941D01*
X140919650Y-117825299D01*
X140787689Y-118006926D01*
X140687977Y-118202620D01*
X140687976Y-118202623D01*
X140620108Y-118411503D01*
X140585750Y-118628428D01*
X140585750Y-119233600D01*
X141536956Y-119233600D01*
X141503461Y-119267095D01*
X141424877Y-119403205D01*
X141384200Y-119555017D01*
X141384200Y-119712183D01*
X141424877Y-119863995D01*
X141503461Y-120000105D01*
X141536956Y-120033600D01*
X140585750Y-120033600D01*
X140585750Y-120638771D01*
X140620108Y-120855696D01*
X140687976Y-121064576D01*
X140687977Y-121064579D01*
X140787689Y-121260273D01*
X140916788Y-121437962D01*
X141072087Y-121593261D01*
X141249776Y-121722360D01*
X141445470Y-121822072D01*
X141445473Y-121822073D01*
X141581099Y-121866140D01*
X141581100Y-121866139D01*
X141581100Y-120077744D01*
X141614595Y-120111239D01*
X141750705Y-120189823D01*
X141902517Y-120230500D01*
X142059683Y-120230500D01*
X142211495Y-120189823D01*
X142347605Y-120111239D01*
X142381100Y-120077744D01*
X142381100Y-121866140D01*
X142516726Y-121822073D01*
X142516729Y-121822072D01*
X142712423Y-121722360D01*
X142890112Y-121593261D01*
X143045411Y-121437962D01*
X143174510Y-121260273D01*
X143274222Y-121064579D01*
X143274223Y-121064576D01*
X143342091Y-120855696D01*
X143376450Y-120638771D01*
X143376450Y-120033600D01*
X142425244Y-120033600D01*
X142458739Y-120000105D01*
X142537323Y-119863995D01*
X142578000Y-119712183D01*
X142578000Y-119555017D01*
X142537323Y-119403205D01*
X142458739Y-119267095D01*
X142425244Y-119233600D01*
X143376450Y-119233600D01*
X143376450Y-118628428D01*
X143342091Y-118411503D01*
X143274223Y-118202623D01*
X143274222Y-118202620D01*
X143174510Y-118006926D01*
X143042550Y-117825299D01*
X143044442Y-117823923D01*
X143019774Y-117769005D01*
X143030147Y-117699910D01*
X143076230Y-117647391D01*
X143142619Y-117628122D01*
X143876293Y-117628122D01*
X143943332Y-117647807D01*
X143989087Y-117700611D01*
X144000293Y-117752122D01*
X144000293Y-125879600D01*
X143980608Y-125946639D01*
X143927804Y-125992394D01*
X143876293Y-126003600D01*
X140274293Y-126003600D01*
X140207254Y-125983915D01*
X140161499Y-125931111D01*
X140150293Y-125879600D01*
X140150293Y-117752122D01*
X140169978Y-117685083D01*
X140222782Y-117639328D01*
X140274293Y-117628122D01*
X140819581Y-117628122D01*
X140886620Y-117647807D01*
G37*
%TD.AperFunction*%
%TD*%
%TA.AperFunction,Conductor*%
%TO.N,DGND*%
G36*
X159785750Y-119233600D02*
G01*
X160736956Y-119233600D01*
X160703461Y-119267095D01*
X160624877Y-119403205D01*
X160584200Y-119555017D01*
X160584200Y-119712183D01*
X160624877Y-119863995D01*
X160703461Y-120000105D01*
X160736956Y-120033600D01*
X159785750Y-120033600D01*
X159785750Y-120638771D01*
X159820108Y-120855696D01*
X159887976Y-121064576D01*
X159887977Y-121064579D01*
X159987689Y-121260273D01*
X160116788Y-121437962D01*
X160272087Y-121593261D01*
X160449776Y-121722360D01*
X160645470Y-121822072D01*
X160645473Y-121822073D01*
X160781099Y-121866140D01*
X160781100Y-121866139D01*
X160781100Y-120077744D01*
X160814595Y-120111239D01*
X160950705Y-120189823D01*
X161102517Y-120230500D01*
X161259683Y-120230500D01*
X161411495Y-120189823D01*
X161547605Y-120111239D01*
X161581100Y-120077744D01*
X161581100Y-121866140D01*
X161716726Y-121822073D01*
X161716729Y-121822072D01*
X161912423Y-121722360D01*
X162090112Y-121593261D01*
X162245411Y-121437962D01*
X162374510Y-121260273D01*
X162474222Y-121064579D01*
X162474223Y-121064576D01*
X162542091Y-120855696D01*
X162576450Y-120638771D01*
X162576450Y-120033600D01*
X161625244Y-120033600D01*
X161658739Y-120000105D01*
X161737323Y-119863995D01*
X161778000Y-119712183D01*
X161778000Y-119555017D01*
X161737323Y-119403205D01*
X161658739Y-119267095D01*
X161625244Y-119233600D01*
X162576450Y-119233600D01*
X162576450Y-118654687D01*
X163100000Y-118654687D01*
X163100000Y-126003600D01*
X159250000Y-126003600D01*
X159250000Y-118654687D01*
X159785750Y-118654687D01*
X159785750Y-119233600D01*
G37*
%TD.AperFunction*%
%TA.AperFunction,Conductor*%
G36*
X159250000Y-118654687D02*
G01*
X159200000Y-118654687D01*
X159250000Y-118604687D01*
X159250000Y-118654687D01*
G37*
%TD.AperFunction*%
%TD*%
%TA.AperFunction,Conductor*%
%TO.N,VOUT*%
G36*
X165168911Y-117564477D02*
G01*
X165214666Y-117617281D01*
X165224610Y-117686439D01*
X165195585Y-117749995D01*
X165189553Y-117756473D01*
X165116788Y-117829237D01*
X164987689Y-118006926D01*
X164887977Y-118202620D01*
X164887976Y-118202623D01*
X164820108Y-118411503D01*
X164785750Y-118628428D01*
X164785750Y-119233600D01*
X165736956Y-119233600D01*
X165703461Y-119267095D01*
X165624877Y-119403205D01*
X165584200Y-119555017D01*
X165584200Y-119712183D01*
X165624877Y-119863995D01*
X165703461Y-120000105D01*
X165736956Y-120033600D01*
X164785750Y-120033600D01*
X164785750Y-120638771D01*
X164820108Y-120855696D01*
X164887976Y-121064576D01*
X164887977Y-121064579D01*
X164987689Y-121260273D01*
X165116788Y-121437962D01*
X165272087Y-121593261D01*
X165449776Y-121722360D01*
X165645470Y-121822072D01*
X165645473Y-121822073D01*
X165781099Y-121866140D01*
X165781100Y-121866139D01*
X165781100Y-120077744D01*
X165814595Y-120111239D01*
X165950705Y-120189823D01*
X166102517Y-120230500D01*
X166259683Y-120230500D01*
X166411495Y-120189823D01*
X166547605Y-120111239D01*
X166581100Y-120077744D01*
X166581100Y-121866140D01*
X166716726Y-121822073D01*
X166716729Y-121822072D01*
X166912423Y-121722360D01*
X167090112Y-121593261D01*
X167245411Y-121437962D01*
X167374510Y-121260273D01*
X167474222Y-121064579D01*
X167474223Y-121064576D01*
X167542091Y-120855696D01*
X167576450Y-120638771D01*
X167576450Y-120033600D01*
X166625244Y-120033600D01*
X166658739Y-120000105D01*
X166737323Y-119863995D01*
X166778000Y-119712183D01*
X166778000Y-119555017D01*
X166737323Y-119403205D01*
X166658739Y-119267095D01*
X166625244Y-119233600D01*
X167576450Y-119233600D01*
X167576450Y-118628428D01*
X167542091Y-118411503D01*
X167474223Y-118202623D01*
X167474222Y-118202620D01*
X167374510Y-118006926D01*
X167245411Y-117829237D01*
X167172647Y-117756473D01*
X167139162Y-117695150D01*
X167144146Y-117625458D01*
X167186018Y-117569525D01*
X167251482Y-117545108D01*
X167260328Y-117544792D01*
X168026000Y-117544792D01*
X168093039Y-117564477D01*
X168138794Y-117617281D01*
X168150000Y-117668792D01*
X168150000Y-125879600D01*
X168130315Y-125946639D01*
X168077511Y-125992394D01*
X168026000Y-126003600D01*
X164424000Y-126003600D01*
X164356961Y-125983915D01*
X164311206Y-125931111D01*
X164300000Y-125879600D01*
X164300000Y-117668792D01*
X164319685Y-117601753D01*
X164372489Y-117555998D01*
X164424000Y-117544792D01*
X165101872Y-117544792D01*
X165168911Y-117564477D01*
G37*
%TD.AperFunction*%
%TD*%
%TA.AperFunction,Conductor*%
%TO.N,PWR*%
G36*
X125570687Y-117669685D02*
G01*
X125616442Y-117722489D01*
X125626386Y-117791647D01*
X125603966Y-117846886D01*
X125487689Y-118006926D01*
X125387977Y-118202620D01*
X125387976Y-118202623D01*
X125320108Y-118411503D01*
X125285750Y-118628428D01*
X125285750Y-119383600D01*
X126136196Y-119383600D01*
X126124877Y-119403205D01*
X126084200Y-119555017D01*
X126084200Y-119712183D01*
X126124877Y-119863995D01*
X126136196Y-119883600D01*
X125285750Y-119883600D01*
X125285750Y-120638771D01*
X125320108Y-120855696D01*
X125387976Y-121064576D01*
X125387977Y-121064579D01*
X125487689Y-121260273D01*
X125616788Y-121437962D01*
X125772087Y-121593261D01*
X125949776Y-121722360D01*
X126145470Y-121822072D01*
X126145473Y-121822073D01*
X126354353Y-121889941D01*
X126431100Y-121902097D01*
X126431100Y-120178503D01*
X126450705Y-120189823D01*
X126602517Y-120230500D01*
X126759683Y-120230500D01*
X126911495Y-120189823D01*
X126931100Y-120178503D01*
X126931100Y-121902096D01*
X127007846Y-121889941D01*
X127216726Y-121822073D01*
X127216729Y-121822072D01*
X127412423Y-121722360D01*
X127590112Y-121593261D01*
X127688319Y-121495055D01*
X127749642Y-121461570D01*
X127819334Y-121466554D01*
X127875267Y-121508426D01*
X127899684Y-121573890D01*
X127900000Y-121582736D01*
X127900000Y-125879600D01*
X127880315Y-125946639D01*
X127827511Y-125992394D01*
X127776000Y-126003600D01*
X123224000Y-126003600D01*
X123156961Y-125983915D01*
X123111206Y-125931111D01*
X123100000Y-125879600D01*
X123100000Y-118101362D01*
X123119685Y-118034323D01*
X123136319Y-118013681D01*
X123463681Y-117686319D01*
X123525004Y-117652834D01*
X123551362Y-117650000D01*
X125503648Y-117650000D01*
X125570687Y-117669685D01*
G37*
%TD.AperFunction*%
%TD*%
%TA.AperFunction,Conductor*%
%TO.N,DGND*%
G36*
X150943039Y-84023285D02*
G01*
X150988794Y-84076089D01*
X151000000Y-84127600D01*
X151000000Y-86876000D01*
X150980315Y-86943039D01*
X150927511Y-86988794D01*
X150876000Y-87000000D01*
X146124000Y-87000000D01*
X146056961Y-86980315D01*
X146011206Y-86927511D01*
X146000000Y-86876000D01*
X146000000Y-84127600D01*
X146019685Y-84060561D01*
X146072489Y-84014806D01*
X146124000Y-84003600D01*
X150876000Y-84003600D01*
X150943039Y-84023285D01*
G37*
%TD.AperFunction*%
%TD*%
%TA.AperFunction,Conductor*%
%TO.N,DGND*%
G36*
X130232315Y-92393307D02*
G01*
X130301556Y-92448526D01*
X130339983Y-92528318D01*
X130339983Y-92616882D01*
X130301556Y-92696674D01*
X130286686Y-92713314D01*
X130250005Y-92749994D01*
X130250003Y-92749996D01*
X129099999Y-94250001D01*
X128600000Y-95699996D01*
X128450000Y-97150001D01*
X128450000Y-97150004D01*
X128699999Y-98949997D01*
X129249998Y-100149995D01*
X129250002Y-100150003D01*
X129999999Y-101150000D01*
X131399998Y-102199999D01*
X131399999Y-102199999D01*
X131400000Y-102200000D01*
X133150000Y-102900000D01*
X133150002Y-102900000D01*
X133150005Y-102900001D01*
X134499998Y-103100000D01*
X134499999Y-103100000D01*
X134499999Y-103099999D01*
X134500000Y-103100000D01*
X135800000Y-102900000D01*
X137250000Y-102400000D01*
X137255133Y-102396500D01*
X143078600Y-102396500D01*
X143078600Y-104150699D01*
X143114611Y-104378064D01*
X143114612Y-104378071D01*
X143185745Y-104596998D01*
X143185753Y-104597017D01*
X143290254Y-104802111D01*
X143425570Y-104988358D01*
X143588341Y-105151129D01*
X143588344Y-105151131D01*
X143588345Y-105151132D01*
X143774583Y-105286442D01*
X143774585Y-105286443D01*
X143774588Y-105286445D01*
X143979682Y-105390946D01*
X143979689Y-105390948D01*
X143979695Y-105390952D01*
X144198631Y-105462088D01*
X144425999Y-105498100D01*
X144426000Y-105498100D01*
X144656200Y-105498100D01*
X144656201Y-105498100D01*
X144883569Y-105462088D01*
X145102505Y-105390952D01*
X145307617Y-105286442D01*
X145493855Y-105151132D01*
X145656632Y-104988355D01*
X145656636Y-104988348D01*
X145659774Y-104984676D01*
X145661874Y-104983113D01*
X145662161Y-104982827D01*
X145662203Y-104982869D01*
X145730833Y-104931816D01*
X145817789Y-104915022D01*
X145903421Y-104937621D01*
X145962426Y-104984676D01*
X145965573Y-104988361D01*
X146128341Y-105151129D01*
X146128344Y-105151131D01*
X146128345Y-105151132D01*
X146314583Y-105286442D01*
X146314585Y-105286443D01*
X146314588Y-105286445D01*
X146519682Y-105390946D01*
X146519689Y-105390948D01*
X146519695Y-105390952D01*
X146738631Y-105462088D01*
X146965999Y-105498100D01*
X146966000Y-105498100D01*
X147196200Y-105498100D01*
X147196201Y-105498100D01*
X147423569Y-105462088D01*
X147642505Y-105390952D01*
X147847617Y-105286442D01*
X148033855Y-105151132D01*
X148196632Y-104988355D01*
X148196636Y-104988348D01*
X148199774Y-104984676D01*
X148201874Y-104983113D01*
X148202161Y-104982827D01*
X148202203Y-104982869D01*
X148270833Y-104931816D01*
X148357789Y-104915022D01*
X148443421Y-104937621D01*
X148502426Y-104984676D01*
X148505573Y-104988361D01*
X148668341Y-105151129D01*
X148668344Y-105151131D01*
X148668345Y-105151132D01*
X148854583Y-105286442D01*
X148854585Y-105286443D01*
X148854588Y-105286445D01*
X149059682Y-105390946D01*
X149059689Y-105390948D01*
X149059695Y-105390952D01*
X149278631Y-105462088D01*
X149505999Y-105498100D01*
X149506000Y-105498100D01*
X149736200Y-105498100D01*
X149736201Y-105498100D01*
X149963569Y-105462088D01*
X150182505Y-105390952D01*
X150387617Y-105286442D01*
X150573855Y-105151132D01*
X150736632Y-104988355D01*
X150871942Y-104802117D01*
X150976452Y-104597005D01*
X151047588Y-104378069D01*
X151083600Y-104150701D01*
X151083600Y-102396499D01*
X151047588Y-102169131D01*
X150976452Y-101950195D01*
X150976448Y-101950189D01*
X150976446Y-101950182D01*
X150871945Y-101745088D01*
X150871943Y-101745085D01*
X150871942Y-101745083D01*
X150736632Y-101558845D01*
X150736630Y-101558843D01*
X150736629Y-101558841D01*
X150573858Y-101396070D01*
X150387611Y-101260754D01*
X150182517Y-101156253D01*
X150182498Y-101156245D01*
X149963571Y-101085112D01*
X149963564Y-101085111D01*
X149834469Y-101064664D01*
X149736201Y-101049100D01*
X149505999Y-101049100D01*
X149437385Y-101059967D01*
X149278635Y-101085111D01*
X149278628Y-101085112D01*
X149059701Y-101156245D01*
X149059682Y-101156253D01*
X148854588Y-101260754D01*
X148668341Y-101396070D01*
X148505568Y-101558843D01*
X148502419Y-101562531D01*
X148500318Y-101564093D01*
X148500039Y-101564373D01*
X148499997Y-101564331D01*
X148431358Y-101615387D01*
X148344401Y-101632176D01*
X148258770Y-101609573D01*
X148199781Y-101562531D01*
X148196631Y-101558843D01*
X148033858Y-101396070D01*
X147847611Y-101260754D01*
X147642517Y-101156253D01*
X147642498Y-101156245D01*
X147423571Y-101085112D01*
X147423564Y-101085111D01*
X147294469Y-101064664D01*
X147196201Y-101049100D01*
X146965999Y-101049100D01*
X146897385Y-101059967D01*
X146738635Y-101085111D01*
X146738628Y-101085112D01*
X146519701Y-101156245D01*
X146519682Y-101156253D01*
X146314588Y-101260754D01*
X146128341Y-101396070D01*
X145965568Y-101558843D01*
X145962419Y-101562531D01*
X145960318Y-101564093D01*
X145960039Y-101564373D01*
X145959997Y-101564331D01*
X145891358Y-101615387D01*
X145804401Y-101632176D01*
X145718770Y-101609573D01*
X145659781Y-101562531D01*
X145656631Y-101558843D01*
X145493858Y-101396070D01*
X145307611Y-101260754D01*
X145102517Y-101156253D01*
X145102498Y-101156245D01*
X144883571Y-101085112D01*
X144883564Y-101085111D01*
X144754469Y-101064664D01*
X144656201Y-101049100D01*
X144425999Y-101049100D01*
X144357385Y-101059967D01*
X144198635Y-101085111D01*
X144198628Y-101085112D01*
X143979701Y-101156245D01*
X143979682Y-101156253D01*
X143774588Y-101260754D01*
X143588341Y-101396070D01*
X143425570Y-101558841D01*
X143290254Y-101745088D01*
X143185753Y-101950182D01*
X143185745Y-101950201D01*
X143114612Y-102169128D01*
X143114611Y-102169135D01*
X143078600Y-102396500D01*
X137255133Y-102396500D01*
X138350000Y-101650000D01*
X139450000Y-100500000D01*
X140100000Y-99250000D01*
X140350000Y-98300000D01*
X140500000Y-97350000D01*
X140500000Y-96450000D01*
X140350000Y-95650000D01*
X140150000Y-94900000D01*
X139700000Y-94050000D01*
X139400000Y-93550000D01*
X138900000Y-92950000D01*
X138663314Y-92713314D01*
X138616195Y-92638326D01*
X138606279Y-92550319D01*
X138635530Y-92466726D01*
X138698154Y-92404102D01*
X138781747Y-92374851D01*
X138804028Y-92373600D01*
X173282100Y-92373600D01*
X173368443Y-92393307D01*
X173437684Y-92448526D01*
X173476111Y-92528318D01*
X173481100Y-92572600D01*
X173481100Y-125804600D01*
X173461393Y-125890943D01*
X173406174Y-125960184D01*
X173326382Y-125998611D01*
X173282100Y-126003600D01*
X169054500Y-126003600D01*
X168968157Y-125983893D01*
X168898916Y-125928674D01*
X168860489Y-125848882D01*
X168855500Y-125804600D01*
X168855500Y-117668797D01*
X168855500Y-117668792D01*
X168839376Y-117518821D01*
X168828170Y-117467310D01*
X168825607Y-117455978D01*
X168767047Y-117296300D01*
X168671975Y-117155276D01*
X168671969Y-117155269D01*
X168671966Y-117155265D01*
X168626233Y-117102487D01*
X168626232Y-117102486D01*
X168626220Y-117102472D01*
X168583620Y-117057465D01*
X168528768Y-117015931D01*
X168448030Y-116954795D01*
X168291815Y-116887559D01*
X168291811Y-116887558D01*
X168291807Y-116887556D01*
X168224768Y-116867871D01*
X168194837Y-116859793D01*
X168158790Y-116855416D01*
X168026001Y-116839292D01*
X168026000Y-116839292D01*
X167260328Y-116839292D01*
X167260309Y-116839292D01*
X167235155Y-116839741D01*
X167226309Y-116840057D01*
X167226296Y-116840058D01*
X167170289Y-116844296D01*
X167170285Y-116844296D01*
X167170284Y-116844297D01*
X167004937Y-116884089D01*
X166939467Y-116908508D01*
X166882421Y-116932690D01*
X166882412Y-116932695D01*
X166738837Y-117023851D01*
X166738835Y-117023853D01*
X166655454Y-117110978D01*
X166581518Y-117159731D01*
X166493750Y-117171576D01*
X166480555Y-117169936D01*
X166306696Y-117142400D01*
X166055504Y-117142400D01*
X165884316Y-117169513D01*
X165795953Y-117163555D01*
X165718926Y-117119848D01*
X165705096Y-117105646D01*
X165705096Y-117105647D01*
X165705062Y-117105611D01*
X165702791Y-117103279D01*
X165702092Y-117102472D01*
X165659492Y-117057465D01*
X165604640Y-117015931D01*
X165523902Y-116954795D01*
X165367687Y-116887559D01*
X165367683Y-116887558D01*
X165367679Y-116887556D01*
X165300640Y-116867871D01*
X165270709Y-116859793D01*
X165234662Y-116855416D01*
X165101873Y-116839292D01*
X165101872Y-116839292D01*
X164424000Y-116839292D01*
X164295453Y-116853112D01*
X164274028Y-116855416D01*
X164274025Y-116855416D01*
X164222480Y-116866630D01*
X164211189Y-116869184D01*
X164211185Y-116869185D01*
X164051511Y-116927744D01*
X164051506Y-116927746D01*
X163910481Y-117022819D01*
X163910473Y-117022825D01*
X163857695Y-117068558D01*
X163857682Y-117068569D01*
X163857680Y-117068572D01*
X163812878Y-117110978D01*
X163812672Y-117111173D01*
X163710003Y-117246761D01*
X163642767Y-117402976D01*
X163642765Y-117402982D01*
X163642764Y-117402985D01*
X163627203Y-117455981D01*
X163623077Y-117470031D01*
X163615001Y-117499954D01*
X163615001Y-117499955D01*
X163594500Y-117668791D01*
X163594500Y-125804600D01*
X163574793Y-125890943D01*
X163519574Y-125960184D01*
X163439782Y-125998611D01*
X163395500Y-126003600D01*
X163100000Y-126003600D01*
X163100000Y-118654687D01*
X159250000Y-118654687D01*
X159250000Y-126003600D01*
X154255733Y-126003600D01*
X154169390Y-125983893D01*
X154100149Y-125928674D01*
X154061722Y-125848882D01*
X154061722Y-125760318D01*
X154100149Y-125680526D01*
X154169390Y-125625307D01*
X154208499Y-125611286D01*
X154507689Y-125538193D01*
X154863759Y-125409785D01*
X155204163Y-125244258D01*
X155525044Y-125043485D01*
X155822766Y-124809742D01*
X156093957Y-124545677D01*
X156335543Y-124254282D01*
X156544786Y-123938860D01*
X156719317Y-123602983D01*
X156857158Y-123250457D01*
X156956746Y-122885277D01*
X157016955Y-122511580D01*
X157037100Y-122133600D01*
X157016955Y-121755620D01*
X156956746Y-121381923D01*
X156857158Y-121016743D01*
X156719317Y-120664217D01*
X156714291Y-120654544D01*
X156544791Y-120328348D01*
X156544786Y-120328340D01*
X156335543Y-120012918D01*
X156329795Y-120005985D01*
X156093968Y-119721535D01*
X156093961Y-119721528D01*
X156093957Y-119721523D01*
X155822766Y-119457458D01*
X155822764Y-119457456D01*
X155525048Y-119223718D01*
X155525047Y-119223717D01*
X155525044Y-119223715D01*
X155204163Y-119022942D01*
X155204164Y-119022942D01*
X155204157Y-119022938D01*
X154863756Y-118857413D01*
X154507698Y-118729010D01*
X154507689Y-118729007D01*
X154203481Y-118654687D01*
X159200000Y-118654687D01*
X159250000Y-118654687D01*
X159250000Y-118604687D01*
X159200000Y-118654687D01*
X154203481Y-118654687D01*
X154139987Y-118639175D01*
X154139980Y-118639174D01*
X154139976Y-118639173D01*
X153764842Y-118588939D01*
X153764820Y-118588937D01*
X153764819Y-118588937D01*
X153764817Y-118588936D01*
X153764806Y-118588936D01*
X153386452Y-118578859D01*
X153386438Y-118578860D01*
X153386437Y-118578860D01*
X153116726Y-118600448D01*
X153009127Y-118609061D01*
X153009122Y-118609061D01*
X152637165Y-118679195D01*
X152274766Y-118788470D01*
X152274757Y-118788473D01*
X151926037Y-118935644D01*
X151594922Y-119119056D01*
X151594920Y-119119058D01*
X151285189Y-119336617D01*
X151285177Y-119336627D01*
X151147087Y-119457458D01*
X151000322Y-119585880D01*
X151000321Y-119585881D01*
X151000320Y-119585881D01*
X150743573Y-119863999D01*
X150517834Y-120167845D01*
X150325678Y-120493950D01*
X150325676Y-120493955D01*
X150193536Y-120785167D01*
X150169264Y-120838657D01*
X150050383Y-121198011D01*
X150050383Y-121198013D01*
X149970377Y-121567950D01*
X149970375Y-121567962D01*
X149970374Y-121567968D01*
X149970374Y-121567970D01*
X149930140Y-121944342D01*
X149930140Y-122010969D01*
X149930140Y-122322858D01*
X149950315Y-122511586D01*
X149970375Y-122699237D01*
X149970377Y-122699249D01*
X150050383Y-123069186D01*
X150050383Y-123069188D01*
X150169264Y-123428542D01*
X150169266Y-123428547D01*
X150169269Y-123428555D01*
X150248418Y-123602983D01*
X150325678Y-123773249D01*
X150517834Y-124099354D01*
X150743573Y-124403200D01*
X150859126Y-124528371D01*
X151000322Y-124681320D01*
X151285182Y-124930577D01*
X151594923Y-125148144D01*
X151926035Y-125331554D01*
X151926037Y-125331555D01*
X152274757Y-125478726D01*
X152274759Y-125478726D01*
X152274767Y-125478730D01*
X152637166Y-125588005D01*
X152748759Y-125609046D01*
X152829955Y-125644410D01*
X152887767Y-125711502D01*
X152910743Y-125797033D01*
X152894333Y-125884062D01*
X152841788Y-125955354D01*
X152763514Y-125996786D01*
X152711887Y-126003600D01*
X144904793Y-126003600D01*
X144818450Y-125983893D01*
X144749209Y-125928674D01*
X144710782Y-125848882D01*
X144705793Y-125804600D01*
X144705793Y-117752127D01*
X144705793Y-117752122D01*
X144689669Y-117602151D01*
X144678463Y-117550640D01*
X144678443Y-117550548D01*
X144677060Y-117544440D01*
X144675900Y-117539308D01*
X144617340Y-117379630D01*
X144522268Y-117238606D01*
X144522262Y-117238599D01*
X144522259Y-117238595D01*
X144476526Y-117185817D01*
X144476525Y-117185816D01*
X144476513Y-117185802D01*
X144433913Y-117140795D01*
X144357012Y-117082565D01*
X144298323Y-117038125D01*
X144142108Y-116970889D01*
X144142104Y-116970888D01*
X144142100Y-116970886D01*
X144075061Y-116951201D01*
X144045130Y-116943123D01*
X143919184Y-116927830D01*
X143876294Y-116922622D01*
X143876293Y-116922622D01*
X143142619Y-116922622D01*
X143116131Y-116923162D01*
X143113826Y-116923210D01*
X142945973Y-116950582D01*
X142945962Y-116950584D01*
X142879578Y-116969852D01*
X142822918Y-116988935D01*
X142672697Y-117068692D01*
X142580626Y-117151047D01*
X142503132Y-117193922D01*
X142414710Y-117198927D01*
X142386462Y-117191984D01*
X142354798Y-117181695D01*
X142354789Y-117181693D01*
X142106696Y-117142400D01*
X141855504Y-117142400D01*
X141607405Y-117181694D01*
X141607392Y-117181697D01*
X141580534Y-117190424D01*
X141492327Y-117198361D01*
X141409411Y-117167241D01*
X141383790Y-117145740D01*
X141383315Y-117146271D01*
X141377207Y-117140800D01*
X141377202Y-117140796D01*
X141377201Y-117140795D01*
X141300300Y-117082565D01*
X141241611Y-117038125D01*
X141085396Y-116970889D01*
X141085392Y-116970888D01*
X141085388Y-116970886D01*
X141018349Y-116951201D01*
X140988418Y-116943123D01*
X140862472Y-116927830D01*
X140819582Y-116922622D01*
X140819581Y-116922622D01*
X140274293Y-116922622D01*
X140145746Y-116936442D01*
X140124321Y-116938746D01*
X140124318Y-116938746D01*
X140072773Y-116949960D01*
X140061482Y-116952514D01*
X140061478Y-116952515D01*
X139901804Y-117011074D01*
X139901799Y-117011076D01*
X139760774Y-117106149D01*
X139760766Y-117106155D01*
X139707988Y-117151888D01*
X139707975Y-117151899D01*
X139707973Y-117151902D01*
X139665626Y-117191984D01*
X139662965Y-117194503D01*
X139560296Y-117330091D01*
X139493060Y-117486306D01*
X139493058Y-117486312D01*
X139493057Y-117486315D01*
X139475967Y-117544516D01*
X139473370Y-117553361D01*
X139465294Y-117583284D01*
X139465294Y-117583285D01*
X139444793Y-117752121D01*
X139444793Y-117916665D01*
X135100174Y-117916665D01*
X134255847Y-117949777D01*
X134255847Y-117757335D01*
X134255847Y-117757330D01*
X134239723Y-117607359D01*
X134228517Y-117555848D01*
X134225954Y-117544516D01*
X134167394Y-117384838D01*
X134072322Y-117243814D01*
X134072316Y-117243807D01*
X134072313Y-117243803D01*
X134026580Y-117191025D01*
X134026579Y-117191024D01*
X134026567Y-117191010D01*
X133983967Y-117146003D01*
X133900188Y-117082565D01*
X133848377Y-117043333D01*
X133692162Y-116976097D01*
X133692158Y-116976096D01*
X133692154Y-116976094D01*
X133625115Y-116956409D01*
X133595184Y-116948331D01*
X133559137Y-116943954D01*
X133426348Y-116927830D01*
X133426347Y-116927830D01*
X132845658Y-116927830D01*
X132845652Y-116927830D01*
X132676855Y-116948516D01*
X132676833Y-116948520D01*
X132618979Y-116962847D01*
X132588337Y-116971173D01*
X132588333Y-116971174D01*
X132588331Y-116971175D01*
X132566106Y-116980798D01*
X132432255Y-117038753D01*
X132296893Y-117141715D01*
X132296892Y-117141716D01*
X132296889Y-117141719D01*
X132292752Y-117145740D01*
X132291454Y-117147001D01*
X132215799Y-117193041D01*
X132127659Y-117201697D01*
X132091276Y-117193548D01*
X132089716Y-117193041D01*
X132054796Y-117181695D01*
X132054794Y-117181694D01*
X132054789Y-117181693D01*
X131806696Y-117142400D01*
X131555504Y-117142400D01*
X131307405Y-117181694D01*
X131307394Y-117181697D01*
X131273845Y-117192598D01*
X131185638Y-117200537D01*
X131102722Y-117169418D01*
X131080305Y-117150573D01*
X131079494Y-117151479D01*
X131073386Y-117146008D01*
X131073381Y-117146004D01*
X131073380Y-117146003D01*
X130989601Y-117082565D01*
X130937790Y-117043333D01*
X130781575Y-116976097D01*
X130781571Y-116976096D01*
X130781567Y-116976094D01*
X130714528Y-116956409D01*
X130684597Y-116948331D01*
X130648550Y-116943954D01*
X130515761Y-116927830D01*
X130515760Y-116927830D01*
X129824347Y-116927830D01*
X129695800Y-116941650D01*
X129674375Y-116943954D01*
X129674372Y-116943954D01*
X129622827Y-116955168D01*
X129611536Y-116957722D01*
X129611532Y-116957723D01*
X129451858Y-117016282D01*
X129451853Y-117016284D01*
X129310828Y-117111357D01*
X129310820Y-117111363D01*
X129258042Y-117157096D01*
X129258029Y-117157107D01*
X129258027Y-117157110D01*
X129222842Y-117190413D01*
X129213019Y-117199711D01*
X129110350Y-117335299D01*
X129043114Y-117491514D01*
X129043112Y-117491520D01*
X129043111Y-117491523D01*
X129027550Y-117544519D01*
X129023424Y-117558569D01*
X129015348Y-117588492D01*
X129015348Y-117588493D01*
X128994847Y-117757329D01*
X128994847Y-121453934D01*
X128975140Y-121540277D01*
X128919921Y-121609518D01*
X128840129Y-121647945D01*
X128751565Y-121647945D01*
X128671773Y-121609518D01*
X128616554Y-121540277D01*
X128603957Y-121500088D01*
X128602367Y-121500471D01*
X128560702Y-121327345D01*
X128536283Y-121261875D01*
X128512100Y-121204825D01*
X128420939Y-121061243D01*
X128315219Y-120960067D01*
X128266466Y-120886131D01*
X128254621Y-120798364D01*
X128256261Y-120785167D01*
X128276950Y-120654544D01*
X128276950Y-118612654D01*
X128237656Y-118364560D01*
X128237654Y-118364551D01*
X128160032Y-118125656D01*
X128045994Y-117901842D01*
X127898346Y-117698623D01*
X127898341Y-117698618D01*
X127898340Y-117698616D01*
X127720733Y-117521009D01*
X127720731Y-117521008D01*
X127720727Y-117521004D01*
X127517508Y-117373356D01*
X127293694Y-117259318D01*
X127245944Y-117243803D01*
X127054798Y-117181695D01*
X127054789Y-117181693D01*
X126806696Y-117142400D01*
X126555504Y-117142400D01*
X126307405Y-117181694D01*
X126307397Y-117181696D01*
X126251309Y-117199920D01*
X126163102Y-117207858D01*
X126080187Y-117176738D01*
X126068013Y-117167349D01*
X126067806Y-117167624D01*
X126057382Y-117159731D01*
X125993255Y-117111173D01*
X125925678Y-117060003D01*
X125769463Y-116992767D01*
X125769459Y-116992766D01*
X125769455Y-116992764D01*
X125702416Y-116973079D01*
X125672485Y-116965001D01*
X125612547Y-116957723D01*
X125503649Y-116944500D01*
X125503648Y-116944500D01*
X123551362Y-116944500D01*
X123475942Y-116948543D01*
X123471760Y-116948992D01*
X123449588Y-116951376D01*
X123344901Y-116970710D01*
X123335508Y-116973420D01*
X123334590Y-116970239D01*
X123265738Y-116980798D01*
X123181043Y-116954911D01*
X123115967Y-116894840D01*
X123083399Y-116812482D01*
X123081100Y-116782317D01*
X123081100Y-92572600D01*
X123100807Y-92486257D01*
X123156026Y-92417016D01*
X123235818Y-92378589D01*
X123280100Y-92373600D01*
X130145972Y-92373600D01*
X130232315Y-92393307D01*
G37*
%TD.AperFunction*%
%TD*%
M02*
