%TF.GenerationSoftware,KiCad,Pcbnew,8.0.3*%
%TF.CreationDate,2024-09-06T18:55:24+02:00*%
%TF.ProjectId,nixie_supply,6e697869-655f-4737-9570-706c792e6b69,rev?*%
%TF.SameCoordinates,Original*%
%TF.FileFunction,Copper,L1,Top*%
%TF.FilePolarity,Positive*%
%FSLAX46Y46*%
G04 Gerber Fmt 4.6, Leading zero omitted, Abs format (unit mm)*
G04 Created by KiCad (PCBNEW 8.0.3) date 2024-09-06 18:55:24*
%MOMM*%
%LPD*%
G01*
G04 APERTURE LIST*
G04 Aperture macros list*
%AMRoundRect*
0 Rectangle with rounded corners*
0 $1 Rounding radius*
0 $2 $3 $4 $5 $6 $7 $8 $9 X,Y pos of 4 corners*
0 Add a 4 corners polygon primitive as box body*
4,1,4,$2,$3,$4,$5,$6,$7,$8,$9,$2,$3,0*
0 Add four circle primitives for the rounded corners*
1,1,$1+$1,$2,$3*
1,1,$1+$1,$4,$5*
1,1,$1+$1,$6,$7*
1,1,$1+$1,$8,$9*
0 Add four rect primitives between the rounded corners*
20,1,$1+$1,$2,$3,$4,$5,0*
20,1,$1+$1,$4,$5,$6,$7,0*
20,1,$1+$1,$6,$7,$8,$9,0*
20,1,$1+$1,$8,$9,$2,$3,0*%
G04 Aperture macros list end*
%TA.AperFunction,ComponentPad*%
%ADD10O,1.790700X3.581400*%
%TD*%
%TA.AperFunction,SMDPad,CuDef*%
%ADD11R,3.000000X2.000000*%
%TD*%
%TA.AperFunction,SMDPad,CuDef*%
%ADD12R,2.800000X3.800000*%
%TD*%
%TA.AperFunction,SMDPad,CuDef*%
%ADD13R,3.500000X3.000000*%
%TD*%
%TA.AperFunction,SMDPad,CuDef*%
%ADD14RoundRect,0.250000X0.325000X0.650000X-0.325000X0.650000X-0.325000X-0.650000X0.325000X-0.650000X0*%
%TD*%
%TA.AperFunction,SMDPad,CuDef*%
%ADD15RoundRect,0.250000X-0.475000X0.250000X-0.475000X-0.250000X0.475000X-0.250000X0.475000X0.250000X0*%
%TD*%
%TA.AperFunction,ComponentPad*%
%ADD16O,1.524000X3.048000*%
%TD*%
%TA.AperFunction,SMDPad,CuDef*%
%ADD17RoundRect,0.250000X-0.250000X-0.475000X0.250000X-0.475000X0.250000X0.475000X-0.250000X0.475000X0*%
%TD*%
%TA.AperFunction,SMDPad,CuDef*%
%ADD18R,2.700000X1.800000*%
%TD*%
%TA.AperFunction,SMDPad,CuDef*%
%ADD19RoundRect,0.250000X-0.625000X0.312500X-0.625000X-0.312500X0.625000X-0.312500X0.625000X0.312500X0*%
%TD*%
%TA.AperFunction,SMDPad,CuDef*%
%ADD20R,1.800000X3.200000*%
%TD*%
%TA.AperFunction,SMDPad,CuDef*%
%ADD21RoundRect,0.250000X-1.500000X-1.000000X1.500000X-1.000000X1.500000X1.000000X-1.500000X1.000000X0*%
%TD*%
%TA.AperFunction,SMDPad,CuDef*%
%ADD22R,2.200000X0.600000*%
%TD*%
%TA.AperFunction,SMDPad,CuDef*%
%ADD23R,1.800000X1.300000*%
%TD*%
%TA.AperFunction,SMDPad,CuDef*%
%ADD24R,1.600000X2.000000*%
%TD*%
%TA.AperFunction,ViaPad*%
%ADD25C,1.006400*%
%TD*%
%TA.AperFunction,ViaPad*%
%ADD26C,1.000000*%
%TD*%
%TA.AperFunction,ViaPad*%
%ADD27C,1.016000*%
%TD*%
%TA.AperFunction,Conductor*%
%ADD28C,0.600000*%
%TD*%
%TA.AperFunction,Conductor*%
%ADD29C,0.762000*%
%TD*%
%TA.AperFunction,Conductor*%
%ADD30C,0.254000*%
%TD*%
G04 APERTURE END LIST*
D10*
%TO.P,J3,1*%
%TO.N,DGND*%
X161181100Y-119633600D03*
%TO.P,J3,2*%
%TO.N,VOUT*%
X166181100Y-119633600D03*
%TD*%
D11*
%TO.P,C1,+*%
%TO.N,PWR*%
X130981100Y-106733600D03*
%TO.P,C1,-*%
%TO.N,DGND*%
X130981100Y-112733600D03*
%TD*%
D12*
%TO.P,D1,A*%
%TO.N,N$15*%
X147281100Y-95633600D03*
%TO.P,D1,C*%
%TO.N,VOUT*%
X154681100Y-95633600D03*
%TD*%
D13*
%TO.P,L1,P$1*%
%TO.N,PWR*%
X126481100Y-97033600D03*
%TO.P,L1,P$2*%
%TO.N,N$15*%
X142481100Y-97033600D03*
%TD*%
D14*
%TO.P,C6,1*%
%TO.N,DGND*%
X165475000Y-109750000D03*
%TO.P,C6,2*%
%TO.N,VOUT*%
X162525000Y-109750000D03*
%TD*%
D15*
%TO.P,C5,1*%
%TO.N,VCC*%
X139450000Y-107650000D03*
%TO.P,C5,2*%
%TO.N,DGND*%
X139450000Y-109550000D03*
%TD*%
D10*
%TO.P,J1,1*%
%TO.N,PWR*%
X126681100Y-119633600D03*
%TO.P,J1,2*%
%TO.N,VCC*%
X131681100Y-119633600D03*
%TD*%
%TO.P,J2,1*%
%TO.N,DGND*%
X136981100Y-119633600D03*
%TO.P,J2,2*%
%TO.N,SHDN*%
X141981100Y-119633600D03*
%TD*%
D16*
%TO.P,T1,D*%
%TO.N,N$15*%
X147081100Y-103273600D03*
%TO.P,T1,G*%
%TO.N,EXT*%
X144541100Y-103273600D03*
%TO.P,T1,S*%
%TO.N,N$2*%
X149621100Y-103273600D03*
%TD*%
D17*
%TO.P,R1,1*%
%TO.N,DGND*%
X146231100Y-118933600D03*
%TO.P,R1,2*%
%TO.N,N$3*%
X148131100Y-118933600D03*
%TD*%
D18*
%TO.P,RSENSE0,1*%
%TO.N,DGND*%
X154081100Y-107333600D03*
%TO.P,RSENSE0,2*%
%TO.N,N$2*%
X154081100Y-102933600D03*
%TD*%
D19*
%TO.P,REF\u002A\u002A,1*%
%TO.N,PWR*%
X134950000Y-106387500D03*
%TO.P,REF\u002A\u002A,2*%
%TO.N,VCC*%
X134950000Y-109312500D03*
%TD*%
D20*
%TO.P,R2,1*%
%TO.N,N$8*%
X151581100Y-115733600D03*
%TO.P,R2,2*%
%TO.N,VOUT*%
X157181100Y-115733600D03*
%TD*%
D21*
%TO.P,C4,1*%
%TO.N,VOUT*%
X160750000Y-98300000D03*
%TO.P,C4,2*%
%TO.N,DGND*%
X167250000Y-98300000D03*
%TD*%
D17*
%TO.P,C3,1*%
%TO.N,N$17*%
X151431100Y-112633600D03*
%TO.P,C3,2*%
%TO.N,DGND*%
X153331100Y-112633600D03*
%TD*%
D22*
%TO.P,IC1,1*%
%TO.N,EXT*%
X144381100Y-106428600D03*
%TO.P,IC1,2*%
%TO.N,VCC*%
X144381100Y-107698600D03*
%TO.P,IC1,3*%
%TO.N,N$8*%
X144381100Y-108968600D03*
%TO.P,IC1,4*%
%TO.N,SHDN*%
X144381100Y-110238600D03*
%TO.P,IC1,5*%
%TO.N,N$17*%
X149581100Y-110238600D03*
%TO.P,IC1,6*%
%TO.N,DGND*%
X149581100Y-108968600D03*
%TO.P,IC1,7*%
X149581100Y-107698600D03*
%TO.P,IC1,8*%
%TO.N,N$2*%
X149581100Y-106428600D03*
%TD*%
D23*
%TO.P,VR1,1*%
%TO.N,N$3*%
X148681100Y-116333600D03*
D24*
%TO.P,VR1,2*%
X145781100Y-115033600D03*
D23*
%TO.P,VR1,3*%
%TO.N,N$8*%
X148681100Y-113733600D03*
%TD*%
D15*
%TO.P,C2,1*%
%TO.N,VCC*%
X141581100Y-107650000D03*
%TO.P,C2,2*%
%TO.N,DGND*%
X141581100Y-109550000D03*
%TD*%
D25*
%TO.N,DGND*%
X153781100Y-110633600D03*
D26*
X139450000Y-111050000D03*
D25*
X152381100Y-109133600D03*
D27*
X146200000Y-120550000D03*
D25*
X153781100Y-109133600D03*
X169981100Y-93433600D03*
D26*
X140900000Y-111100000D03*
D25*
X169881100Y-102133600D03*
X155181100Y-112133600D03*
X169881100Y-106233600D03*
X155181100Y-109133600D03*
X169881100Y-104233600D03*
X152381100Y-110633600D03*
D27*
X130981100Y-112733600D03*
D25*
X169981100Y-95533600D03*
X155181100Y-110633600D03*
%TD*%
D28*
%TO.N,PWR*%
X134950000Y-106387500D02*
X131327200Y-106387500D01*
X131327200Y-106387500D02*
X130981100Y-106733600D01*
D29*
%TO.N,VCC*%
X134081100Y-110300000D02*
X136731100Y-107650000D01*
X134081100Y-116150000D02*
X134081100Y-110300000D01*
D28*
X141581100Y-107650000D02*
X139450000Y-107650000D01*
D29*
X134081100Y-117433600D02*
X134081100Y-116150000D01*
X131681100Y-119633600D02*
X134081100Y-117433600D01*
X136731100Y-107650000D02*
X139450000Y-107650000D01*
D28*
X141631100Y-107700000D02*
X144379700Y-107700000D01*
X144379700Y-107700000D02*
X144381100Y-107698600D01*
X141581100Y-107650000D02*
X141631100Y-107700000D01*
D30*
%TO.N,N$8*%
X146316100Y-108968600D02*
X144381100Y-108968600D01*
X148681100Y-113433600D02*
X148681100Y-113733600D01*
X150781100Y-114333600D02*
X151581100Y-115733600D01*
X147581100Y-113433600D02*
X146981100Y-112833600D01*
X148681100Y-113733600D02*
X149481100Y-114333600D01*
X149481100Y-114333600D02*
X150781100Y-114333600D01*
X146981100Y-112833600D02*
X146981100Y-109633600D01*
X147581100Y-113433600D02*
X148681100Y-113433600D01*
X146981100Y-109633600D02*
X146316100Y-108968600D01*
%TO.N,SHDN*%
X141981100Y-111495300D02*
X143181100Y-110295300D01*
X141981100Y-119633600D02*
X141981100Y-111495300D01*
X143181100Y-110295300D02*
X144381100Y-110238600D01*
%TO.N,N$17*%
X149581100Y-111638600D02*
X149581100Y-110238600D01*
X150281100Y-112633600D02*
X151431100Y-112633600D01*
X149981100Y-112233600D02*
X150281100Y-112633600D01*
X149581100Y-111638600D02*
X149981100Y-112233600D01*
D28*
%TO.N,DGND*%
X140900000Y-111100000D02*
X141550000Y-110450000D01*
X146200000Y-120550000D02*
X146200000Y-118964700D01*
X139450000Y-111050000D02*
X139450000Y-109550000D01*
X141550000Y-110450000D02*
X141550000Y-109581100D01*
X146200000Y-118964700D02*
X146231100Y-118933600D01*
X141550000Y-109581100D02*
X141581100Y-109550000D01*
D30*
%TO.N,N$3*%
X148681100Y-115033600D02*
X145781100Y-115033600D01*
X148681100Y-117533600D02*
X148681100Y-116333600D01*
X148681100Y-116333600D02*
X148681100Y-115033600D01*
X148131100Y-118933600D02*
X148131100Y-117533600D01*
X148131100Y-117533600D02*
X148681100Y-117533600D01*
%TD*%
%TA.AperFunction,Conductor*%
%TO.N,N$2*%
G36*
X155868443Y-101753307D02*
G01*
X155937684Y-101808526D01*
X155976111Y-101888318D01*
X155981100Y-101932600D01*
X155981100Y-105034600D01*
X155961393Y-105120943D01*
X155906174Y-105190184D01*
X155826382Y-105228611D01*
X155782100Y-105233600D01*
X150981100Y-105233600D01*
X150981100Y-106534600D01*
X150961393Y-106620943D01*
X150906174Y-106690184D01*
X150826382Y-106728611D01*
X150782100Y-106733600D01*
X148807100Y-106733600D01*
X148720757Y-106713893D01*
X148651516Y-106658674D01*
X148613089Y-106578882D01*
X148608100Y-106534600D01*
X148608100Y-101932600D01*
X148627807Y-101846257D01*
X148683026Y-101777016D01*
X148762818Y-101738589D01*
X148807100Y-101733600D01*
X155782100Y-101733600D01*
X155868443Y-101753307D01*
G37*
%TD.AperFunction*%
%TD*%
%TA.AperFunction,Conductor*%
%TO.N,VOUT*%
G36*
X162468443Y-92453307D02*
G01*
X162537684Y-92508526D01*
X162576111Y-92588318D01*
X162581100Y-92632600D01*
X162581100Y-113533600D01*
X168182100Y-113533600D01*
X168268443Y-113553307D01*
X168337684Y-113608526D01*
X168376111Y-113688318D01*
X168381100Y-113732600D01*
X168381100Y-125804600D01*
X168361393Y-125890943D01*
X168306174Y-125960184D01*
X168226382Y-125998611D01*
X168182100Y-126003600D01*
X164080100Y-126003600D01*
X163993757Y-125983893D01*
X163924516Y-125928674D01*
X163886089Y-125848882D01*
X163881100Y-125804600D01*
X163881100Y-117133600D01*
X156880100Y-117133600D01*
X156793757Y-117113893D01*
X156724516Y-117058674D01*
X156686089Y-116978882D01*
X156681100Y-116934600D01*
X156681100Y-98733600D01*
X152880100Y-98733600D01*
X152793757Y-98713893D01*
X152724516Y-98658674D01*
X152686089Y-98578882D01*
X152681100Y-98534600D01*
X152681100Y-92632600D01*
X152700807Y-92546257D01*
X152756026Y-92477016D01*
X152835818Y-92438589D01*
X152880100Y-92433600D01*
X162382100Y-92433600D01*
X162468443Y-92453307D01*
G37*
%TD.AperFunction*%
%TD*%
%TA.AperFunction,Conductor*%
%TO.N,EXT*%
G36*
X145342831Y-101749613D02*
G01*
X145379376Y-101799913D01*
X145384300Y-101831000D01*
X145384300Y-106636200D01*
X145365087Y-106695331D01*
X145314787Y-106731876D01*
X145283700Y-106736800D01*
X143378500Y-106736800D01*
X143319369Y-106717587D01*
X143282824Y-106667287D01*
X143277900Y-106636200D01*
X143277900Y-101831000D01*
X143297113Y-101771869D01*
X143347413Y-101735324D01*
X143378500Y-101730400D01*
X145283700Y-101730400D01*
X145342831Y-101749613D01*
G37*
%TD.AperFunction*%
%TD*%
%TA.AperFunction,Conductor*%
%TO.N,N$15*%
G36*
X149068443Y-92453307D02*
G01*
X149137684Y-92508526D01*
X149176111Y-92588318D01*
X149181100Y-92632600D01*
X149181100Y-100834600D01*
X149161393Y-100920943D01*
X149106174Y-100990184D01*
X149026382Y-101028611D01*
X148982100Y-101033600D01*
X148081100Y-101033600D01*
X148081100Y-104734600D01*
X148061393Y-104820943D01*
X148006174Y-104890184D01*
X147926382Y-104928611D01*
X147882100Y-104933600D01*
X146180100Y-104933600D01*
X146093757Y-104913893D01*
X146024516Y-104858674D01*
X145986089Y-104778882D01*
X145981100Y-104734600D01*
X145981100Y-101033600D01*
X141780100Y-101033600D01*
X141693757Y-101013893D01*
X141624516Y-100958674D01*
X141586089Y-100878882D01*
X141581100Y-100834600D01*
X141581100Y-98533600D01*
X140780100Y-98533600D01*
X140693757Y-98513893D01*
X140624516Y-98458674D01*
X140586089Y-98378882D01*
X140581100Y-98334600D01*
X140581100Y-95332600D01*
X140600807Y-95246257D01*
X140656026Y-95177016D01*
X140735818Y-95138589D01*
X140780100Y-95133600D01*
X141581100Y-95133600D01*
X141581100Y-92632600D01*
X141600807Y-92546257D01*
X141656026Y-92477016D01*
X141735818Y-92438589D01*
X141780100Y-92433600D01*
X148982100Y-92433600D01*
X149068443Y-92453307D01*
G37*
%TD.AperFunction*%
%TD*%
%TA.AperFunction,Conductor*%
%TO.N,DGND*%
G36*
X155868443Y-106153307D02*
G01*
X155937684Y-106208526D01*
X155976111Y-106288318D01*
X155981100Y-106332600D01*
X155981100Y-113334600D01*
X155961393Y-113420943D01*
X155906174Y-113490184D01*
X155826382Y-113528611D01*
X155782100Y-113533600D01*
X152880100Y-113533600D01*
X152793757Y-113513893D01*
X152724516Y-113458674D01*
X152686089Y-113378882D01*
X152681100Y-113334600D01*
X152681100Y-111333600D01*
X151780100Y-111333600D01*
X151693757Y-111313893D01*
X151624516Y-111258674D01*
X151586089Y-111178882D01*
X151581100Y-111134600D01*
X151581100Y-109233600D01*
X149780100Y-109233600D01*
X149693757Y-109213893D01*
X149624516Y-109158674D01*
X149586089Y-109078882D01*
X149581100Y-109034600D01*
X149581100Y-107632600D01*
X149600807Y-107546257D01*
X149656026Y-107477016D01*
X149735818Y-107438589D01*
X149780100Y-107433600D01*
X151681100Y-107433600D01*
X151681100Y-106332600D01*
X151700807Y-106246257D01*
X151756026Y-106177016D01*
X151835818Y-106138589D01*
X151880100Y-106133600D01*
X155782100Y-106133600D01*
X155868443Y-106153307D01*
G37*
%TD.AperFunction*%
%TD*%
%TA.AperFunction,Conductor*%
%TO.N,DGND*%
G36*
X173369515Y-92453307D02*
G01*
X173438756Y-92508526D01*
X173477183Y-92588318D01*
X173482169Y-92633658D01*
X173380031Y-111835658D01*
X173359865Y-111921895D01*
X173304279Y-111990842D01*
X173224283Y-112028843D01*
X173181034Y-112033600D01*
X165680100Y-112033600D01*
X165593757Y-112013893D01*
X165524516Y-111958674D01*
X165486089Y-111878882D01*
X165481100Y-111834600D01*
X165481100Y-92632600D01*
X165500807Y-92546257D01*
X165556026Y-92477016D01*
X165635818Y-92438589D01*
X165680100Y-92433600D01*
X173283172Y-92433600D01*
X173369515Y-92453307D01*
G37*
%TD.AperFunction*%
%TD*%
%TA.AperFunction,Conductor*%
%TO.N,PWR*%
G36*
X128868443Y-92819707D02*
G01*
X128937684Y-92874926D01*
X128976111Y-92954718D01*
X128981100Y-92999000D01*
X128981100Y-105000000D01*
X133082100Y-105000000D01*
X133168443Y-105019707D01*
X133237684Y-105074926D01*
X133276111Y-105154718D01*
X133281100Y-105199000D01*
X133281100Y-109001000D01*
X133261393Y-109087343D01*
X133206174Y-109156584D01*
X133126382Y-109195011D01*
X133082100Y-109200000D01*
X127881100Y-109200000D01*
X127881100Y-125801000D01*
X127861393Y-125887343D01*
X127806174Y-125956584D01*
X127726382Y-125995011D01*
X127682100Y-126000000D01*
X123280100Y-126000000D01*
X123193757Y-125980293D01*
X123124516Y-125925074D01*
X123086089Y-125845282D01*
X123081100Y-125801000D01*
X123081100Y-92999000D01*
X123100807Y-92912657D01*
X123156026Y-92843416D01*
X123235818Y-92804989D01*
X123280100Y-92800000D01*
X128782100Y-92800000D01*
X128868443Y-92819707D01*
G37*
%TD.AperFunction*%
%TD*%
%TA.AperFunction,Conductor*%
%TO.N,VCC*%
G36*
X130582799Y-117653015D02*
G01*
X130628554Y-117705819D01*
X130638498Y-117774977D01*
X130616078Y-117830216D01*
X130487689Y-118006926D01*
X130387977Y-118202620D01*
X130387976Y-118202623D01*
X130320108Y-118411503D01*
X130285750Y-118628428D01*
X130285750Y-119233600D01*
X131236956Y-119233600D01*
X131203461Y-119267095D01*
X131124877Y-119403205D01*
X131084200Y-119555017D01*
X131084200Y-119712183D01*
X131124877Y-119863995D01*
X131203461Y-120000105D01*
X131236956Y-120033600D01*
X130285750Y-120033600D01*
X130285750Y-120638771D01*
X130320108Y-120855696D01*
X130387976Y-121064576D01*
X130387977Y-121064579D01*
X130487689Y-121260273D01*
X130616788Y-121437962D01*
X130772087Y-121593261D01*
X130949776Y-121722360D01*
X131145470Y-121822072D01*
X131145473Y-121822073D01*
X131281099Y-121866140D01*
X131281100Y-121866139D01*
X131281100Y-120077744D01*
X131314595Y-120111239D01*
X131450705Y-120189823D01*
X131602517Y-120230500D01*
X131759683Y-120230500D01*
X131911495Y-120189823D01*
X132047605Y-120111239D01*
X132081100Y-120077744D01*
X132081100Y-121866140D01*
X132216726Y-121822073D01*
X132216729Y-121822072D01*
X132412423Y-121722360D01*
X132590112Y-121593261D01*
X132745411Y-121437962D01*
X132874510Y-121260273D01*
X132974222Y-121064579D01*
X132974223Y-121064576D01*
X133042091Y-120855696D01*
X133076450Y-120638771D01*
X133076450Y-120033600D01*
X132125244Y-120033600D01*
X132158739Y-120000105D01*
X132237323Y-119863995D01*
X132278000Y-119712183D01*
X132278000Y-119555017D01*
X132237323Y-119403205D01*
X132158739Y-119267095D01*
X132125244Y-119233600D01*
X133076450Y-119233600D01*
X133076450Y-118628428D01*
X133042091Y-118411503D01*
X132974223Y-118202623D01*
X132974222Y-118202620D01*
X132874510Y-118006926D01*
X132746122Y-117830216D01*
X132722642Y-117764409D01*
X132738467Y-117696355D01*
X132788573Y-117647661D01*
X132846440Y-117633330D01*
X133426347Y-117633330D01*
X133493386Y-117653015D01*
X133539141Y-117705819D01*
X133550347Y-117757330D01*
X133550347Y-125879600D01*
X133530662Y-125946639D01*
X133477858Y-125992394D01*
X133426347Y-126003600D01*
X129824347Y-126003600D01*
X129757308Y-125983915D01*
X129711553Y-125931111D01*
X129700347Y-125879600D01*
X129700347Y-117757330D01*
X129720032Y-117690291D01*
X129772836Y-117644536D01*
X129824347Y-117633330D01*
X130515760Y-117633330D01*
X130582799Y-117653015D01*
G37*
%TD.AperFunction*%
%TD*%
%TA.AperFunction,Conductor*%
%TO.N,DGND*%
G36*
X135698369Y-117936350D02*
G01*
X135744124Y-117989154D01*
X135754068Y-118058312D01*
X135741815Y-118096960D01*
X135687977Y-118202620D01*
X135687976Y-118202623D01*
X135620108Y-118411503D01*
X135585750Y-118628428D01*
X135585750Y-119233600D01*
X136536956Y-119233600D01*
X136503461Y-119267095D01*
X136424877Y-119403205D01*
X136384200Y-119555017D01*
X136384200Y-119712183D01*
X136424877Y-119863995D01*
X136503461Y-120000105D01*
X136536956Y-120033600D01*
X135585750Y-120033600D01*
X135585750Y-120638771D01*
X135620108Y-120855696D01*
X135687976Y-121064576D01*
X135687977Y-121064579D01*
X135787689Y-121260273D01*
X135916788Y-121437962D01*
X136072087Y-121593261D01*
X136249776Y-121722360D01*
X136445470Y-121822072D01*
X136445473Y-121822073D01*
X136581099Y-121866140D01*
X136581100Y-121866139D01*
X136581100Y-120077744D01*
X136614595Y-120111239D01*
X136750705Y-120189823D01*
X136902517Y-120230500D01*
X137059683Y-120230500D01*
X137211495Y-120189823D01*
X137347605Y-120111239D01*
X137381100Y-120077744D01*
X137381100Y-121866140D01*
X137516726Y-121822073D01*
X137516729Y-121822072D01*
X137712423Y-121722360D01*
X137890112Y-121593261D01*
X138045411Y-121437962D01*
X138174510Y-121260273D01*
X138274222Y-121064579D01*
X138274223Y-121064576D01*
X138342091Y-120855696D01*
X138376450Y-120638771D01*
X138376450Y-120033600D01*
X137425244Y-120033600D01*
X137458739Y-120000105D01*
X137537323Y-119863995D01*
X137578000Y-119712183D01*
X137578000Y-119555017D01*
X137537323Y-119403205D01*
X137458739Y-119267095D01*
X137425244Y-119233600D01*
X138376450Y-119233600D01*
X138376450Y-118628428D01*
X138342091Y-118411503D01*
X138274223Y-118202623D01*
X138274222Y-118202620D01*
X138220385Y-118096960D01*
X138207489Y-118028291D01*
X138233765Y-117963550D01*
X138290872Y-117923293D01*
X138330870Y-117916665D01*
X139326174Y-117916665D01*
X139393213Y-117936350D01*
X139438968Y-117989154D01*
X139450174Y-118040665D01*
X139450174Y-125879600D01*
X139430489Y-125946639D01*
X139377685Y-125992394D01*
X139326174Y-126003600D01*
X134374174Y-126003600D01*
X134307135Y-125983915D01*
X134261380Y-125931111D01*
X134250174Y-125879600D01*
X134250174Y-118122005D01*
X134269859Y-118054966D01*
X134290377Y-118030605D01*
X134350531Y-117975464D01*
X134413246Y-117944676D01*
X134429444Y-117942969D01*
X135097752Y-117916760D01*
X135102611Y-117916665D01*
X135631330Y-117916665D01*
X135698369Y-117936350D01*
G37*
%TD.AperFunction*%
%TD*%
%TA.AperFunction,Conductor*%
%TO.N,SHDN*%
G36*
X140886620Y-117647807D02*
G01*
X140932375Y-117700611D01*
X140942319Y-117769769D01*
X140917782Y-117823941D01*
X140919650Y-117825299D01*
X140787689Y-118006926D01*
X140687977Y-118202620D01*
X140687976Y-118202623D01*
X140620108Y-118411503D01*
X140585750Y-118628428D01*
X140585750Y-119233600D01*
X141536956Y-119233600D01*
X141503461Y-119267095D01*
X141424877Y-119403205D01*
X141384200Y-119555017D01*
X141384200Y-119712183D01*
X141424877Y-119863995D01*
X141503461Y-120000105D01*
X141536956Y-120033600D01*
X140585750Y-120033600D01*
X140585750Y-120638771D01*
X140620108Y-120855696D01*
X140687976Y-121064576D01*
X140687977Y-121064579D01*
X140787689Y-121260273D01*
X140916788Y-121437962D01*
X141072087Y-121593261D01*
X141249776Y-121722360D01*
X141445470Y-121822072D01*
X141445473Y-121822073D01*
X141581099Y-121866140D01*
X141581100Y-121866139D01*
X141581100Y-120077744D01*
X141614595Y-120111239D01*
X141750705Y-120189823D01*
X141902517Y-120230500D01*
X142059683Y-120230500D01*
X142211495Y-120189823D01*
X142347605Y-120111239D01*
X142381100Y-120077744D01*
X142381100Y-121866140D01*
X142516726Y-121822073D01*
X142516729Y-121822072D01*
X142712423Y-121722360D01*
X142890112Y-121593261D01*
X143045411Y-121437962D01*
X143174510Y-121260273D01*
X143274222Y-121064579D01*
X143274223Y-121064576D01*
X143342091Y-120855696D01*
X143376450Y-120638771D01*
X143376450Y-120033600D01*
X142425244Y-120033600D01*
X142458739Y-120000105D01*
X142537323Y-119863995D01*
X142578000Y-119712183D01*
X142578000Y-119555017D01*
X142537323Y-119403205D01*
X142458739Y-119267095D01*
X142425244Y-119233600D01*
X143376450Y-119233600D01*
X143376450Y-118628428D01*
X143342091Y-118411503D01*
X143274223Y-118202623D01*
X143274222Y-118202620D01*
X143174510Y-118006926D01*
X143042550Y-117825299D01*
X143044442Y-117823923D01*
X143019774Y-117769005D01*
X143030147Y-117699910D01*
X143076230Y-117647391D01*
X143142619Y-117628122D01*
X143876293Y-117628122D01*
X143943332Y-117647807D01*
X143989087Y-117700611D01*
X144000293Y-117752122D01*
X144000293Y-125879600D01*
X143980608Y-125946639D01*
X143927804Y-125992394D01*
X143876293Y-126003600D01*
X140274293Y-126003600D01*
X140207254Y-125983915D01*
X140161499Y-125931111D01*
X140150293Y-125879600D01*
X140150293Y-117752122D01*
X140169978Y-117685083D01*
X140222782Y-117639328D01*
X140274293Y-117628122D01*
X140819581Y-117628122D01*
X140886620Y-117647807D01*
G37*
%TD.AperFunction*%
%TD*%
%TA.AperFunction,Conductor*%
%TO.N,DGND*%
G36*
X159728789Y-118674372D02*
G01*
X159774544Y-118727176D01*
X159785750Y-118778687D01*
X159785750Y-119233600D01*
X160736956Y-119233600D01*
X160703461Y-119267095D01*
X160624877Y-119403205D01*
X160584200Y-119555017D01*
X160584200Y-119712183D01*
X160624877Y-119863995D01*
X160703461Y-120000105D01*
X160736956Y-120033600D01*
X159785750Y-120033600D01*
X159785750Y-120638771D01*
X159820108Y-120855696D01*
X159887976Y-121064576D01*
X159887977Y-121064579D01*
X159987689Y-121260273D01*
X160116788Y-121437962D01*
X160272087Y-121593261D01*
X160449776Y-121722360D01*
X160645470Y-121822072D01*
X160645473Y-121822073D01*
X160781099Y-121866140D01*
X160781100Y-121866139D01*
X160781100Y-120077744D01*
X160814595Y-120111239D01*
X160950705Y-120189823D01*
X161102517Y-120230500D01*
X161259683Y-120230500D01*
X161411495Y-120189823D01*
X161547605Y-120111239D01*
X161581100Y-120077744D01*
X161581100Y-121866140D01*
X161716726Y-121822073D01*
X161716729Y-121822072D01*
X161912423Y-121722360D01*
X162090112Y-121593261D01*
X162245411Y-121437962D01*
X162374510Y-121260273D01*
X162474222Y-121064579D01*
X162474223Y-121064576D01*
X162542091Y-120855696D01*
X162576450Y-120638771D01*
X162576450Y-120033600D01*
X161625244Y-120033600D01*
X161658739Y-120000105D01*
X161737323Y-119863995D01*
X161778000Y-119712183D01*
X161778000Y-119555017D01*
X161737323Y-119403205D01*
X161658739Y-119267095D01*
X161625244Y-119233600D01*
X162576450Y-119233600D01*
X162576450Y-118778687D01*
X162596135Y-118711648D01*
X162648939Y-118665893D01*
X162700450Y-118654687D01*
X162976000Y-118654687D01*
X163043039Y-118674372D01*
X163088794Y-118727176D01*
X163100000Y-118778687D01*
X163100000Y-125879600D01*
X163080315Y-125946639D01*
X163027511Y-125992394D01*
X162976000Y-126003600D01*
X159374000Y-126003600D01*
X159306961Y-125983915D01*
X159261206Y-125931111D01*
X159250000Y-125879600D01*
X159250000Y-118778687D01*
X159269685Y-118711648D01*
X159322489Y-118665893D01*
X159374000Y-118654687D01*
X159661750Y-118654687D01*
X159728789Y-118674372D01*
G37*
%TD.AperFunction*%
%TD*%
M02*
