M48
; DRILL file {KiCad 8.0.3} date 2024-09-06T18:54:17+0200
; FORMAT={-:-/ absolute / inch / decimal}
; #@! TF.CreationDate,2024-09-06T18:54:17+02:00
; #@! TF.GenerationSoftware,Kicad,Pcbnew,8.0.3
; #@! TF.FileFunction,Plated,1,2,PTH
FMAT,2
INCH
; #@! TA.AperFunction,Plated,PTH,ViaDrill
T1C0.0236
; #@! TA.AperFunction,Plated,PTH,ComponentDrill
T2C0.0400
; #@! TA.AperFunction,Plated,PTH,ComponentDrill
T3C0.0470
%
G90
G05
T1
X5.1567Y-4.4383
X5.4902Y-4.372
X5.5472Y-4.374
X5.7559Y-4.7461
X5.9993Y-4.2966
X5.9993Y-4.3557
X6.0544Y-4.2966
X6.0544Y-4.3557
X6.1095Y-4.2966
X6.1095Y-4.3557
X6.1095Y-4.4147
X6.6882Y-4.021
X6.6882Y-4.1037
X6.6882Y-4.1824
X6.6922Y-3.6785
X6.6922Y-3.7612
T2
X5.6906Y-4.0659
X5.7906Y-4.0659
X5.8906Y-4.0659
T3
X4.9874Y-4.71
X5.1843Y-4.71
X5.393Y-4.71
X5.5898Y-4.71
X6.3457Y-4.71
X6.5426Y-4.71
M30
