%TF.GenerationSoftware,KiCad,Pcbnew,8.0.3*%
%TF.CreationDate,2024-09-06T18:55:24+02:00*%
%TF.ProjectId,nixie_supply,6e697869-655f-4737-9570-706c792e6b69,rev?*%
%TF.SameCoordinates,Original*%
%TF.FileFunction,Soldermask,Bot*%
%TF.FilePolarity,Negative*%
%FSLAX46Y46*%
G04 Gerber Fmt 4.6, Leading zero omitted, Abs format (unit mm)*
G04 Created by KiCad (PCBNEW 8.0.3) date 2024-09-06 18:55:24*
%MOMM*%
%LPD*%
G01*
G04 APERTURE LIST*
%ADD10C,0.100000*%
%ADD11O,2.095500X3.886200*%
%ADD12C,2.800000*%
%ADD13O,1.828800X3.352800*%
G04 APERTURE END LIST*
D10*
X163900000Y-117500000D02*
X168350000Y-117500000D01*
X168350000Y-126000000D01*
X163900000Y-126000000D01*
X163900000Y-117500000D01*
G36*
X163900000Y-117500000D02*
G01*
X168350000Y-117500000D01*
X168350000Y-126000000D01*
X163900000Y-126000000D01*
X163900000Y-117500000D01*
G37*
X159250000Y-117500000D02*
X163100000Y-117500000D01*
X163100000Y-126000000D01*
X159250000Y-126000000D01*
X159250000Y-117500000D01*
G36*
X159250000Y-117500000D02*
G01*
X163100000Y-117500000D01*
X163100000Y-126000000D01*
X159250000Y-126000000D01*
X159250000Y-117500000D01*
G37*
X140150000Y-117650000D02*
X144000000Y-117650000D01*
X144000000Y-125950000D01*
X140150000Y-125950000D01*
X140150000Y-117650000D01*
G36*
X140150000Y-117650000D02*
G01*
X144000000Y-117650000D01*
X144000000Y-125950000D01*
X140150000Y-125950000D01*
X140150000Y-117650000D01*
G37*
X134250000Y-117900000D02*
X139500000Y-117900000D01*
X139500000Y-126000000D01*
X134250000Y-126000000D01*
X134250000Y-117900000D01*
G36*
X134250000Y-117900000D02*
G01*
X139500000Y-117900000D01*
X139500000Y-126000000D01*
X134250000Y-126000000D01*
X134250000Y-117900000D01*
G37*
X129700000Y-117600000D02*
X133550000Y-117600000D01*
X133550000Y-126000000D01*
X129700000Y-126000000D01*
X129700000Y-117600000D01*
G36*
X129700000Y-117600000D02*
G01*
X133550000Y-117600000D01*
X133550000Y-126000000D01*
X129700000Y-126000000D01*
X129700000Y-117600000D01*
G37*
X123100000Y-117400000D02*
X127900000Y-117400000D01*
X127900000Y-126000000D01*
X123100000Y-126000000D01*
X123100000Y-117400000D01*
G36*
X123100000Y-117400000D02*
G01*
X127900000Y-117400000D01*
X127900000Y-126000000D01*
X123100000Y-126000000D01*
X123100000Y-117400000D01*
G37*
D11*
%TO.C,J3*%
X161181100Y-119633600D03*
X166181100Y-119633600D03*
%TD*%
%TO.C,J1*%
X126681100Y-119633600D03*
X131681100Y-119633600D03*
%TD*%
%TO.C,J2*%
X136981100Y-119633600D03*
X141981100Y-119633600D03*
%TD*%
D12*
%TO.C,U$4*%
X153481100Y-122133600D03*
%TD*%
D13*
%TO.C,T1*%
X147081100Y-103273600D03*
X144541100Y-103273600D03*
X149621100Y-103273600D03*
%TD*%
D12*
%TO.C,U$2*%
X126481100Y-88033600D03*
%TD*%
%TO.C,U$3*%
X169771100Y-87933600D03*
%TD*%
M02*
