%TF.GenerationSoftware,KiCad,Pcbnew,8.0.3*%
%TF.CreationDate,2024-09-06T18:55:24+02:00*%
%TF.ProjectId,nixie_supply,6e697869-655f-4737-9570-706c792e6b69,rev?*%
%TF.SameCoordinates,Original*%
%TF.FileFunction,Soldermask,Top*%
%TF.FilePolarity,Negative*%
%FSLAX46Y46*%
G04 Gerber Fmt 4.6, Leading zero omitted, Abs format (unit mm)*
G04 Created by KiCad (PCBNEW 8.0.3) date 2024-09-06 18:55:24*
%MOMM*%
%LPD*%
G01*
G04 APERTURE LIST*
G04 Aperture macros list*
%AMRoundRect*
0 Rectangle with rounded corners*
0 $1 Rounding radius*
0 $2 $3 $4 $5 $6 $7 $8 $9 X,Y pos of 4 corners*
0 Add a 4 corners polygon primitive as box body*
4,1,4,$2,$3,$4,$5,$6,$7,$8,$9,$2,$3,0*
0 Add four circle primitives for the rounded corners*
1,1,$1+$1,$2,$3*
1,1,$1+$1,$4,$5*
1,1,$1+$1,$6,$7*
1,1,$1+$1,$8,$9*
0 Add four rect primitives between the rounded corners*
20,1,$1+$1,$2,$3,$4,$5,0*
20,1,$1+$1,$4,$5,$6,$7,0*
20,1,$1+$1,$6,$7,$8,$9,0*
20,1,$1+$1,$8,$9,$2,$3,0*%
G04 Aperture macros list end*
%ADD10O,2.095500X3.886200*%
%ADD11RoundRect,0.152400X-1.500000X1.000000X-1.500000X-1.000000X1.500000X-1.000000X1.500000X1.000000X0*%
%ADD12RoundRect,0.152400X1.400000X1.900000X-1.400000X1.900000X-1.400000X-1.900000X1.400000X-1.900000X0*%
%ADD13RoundRect,0.152400X-1.750000X-1.500000X1.750000X-1.500000X1.750000X1.500000X-1.750000X1.500000X0*%
%ADD14RoundRect,0.250000X0.325000X0.650000X-0.325000X0.650000X-0.325000X-0.650000X0.325000X-0.650000X0*%
%ADD15RoundRect,0.250000X-0.475000X0.250000X-0.475000X-0.250000X0.475000X-0.250000X0.475000X0.250000X0*%
%ADD16C,2.800000*%
%ADD17O,1.828800X3.352800*%
%ADD18RoundRect,0.250000X-0.250000X-0.475000X0.250000X-0.475000X0.250000X0.475000X-0.250000X0.475000X0*%
%ADD19RoundRect,0.152400X1.350000X-0.900000X1.350000X0.900000X-1.350000X0.900000X-1.350000X-0.900000X0*%
%ADD20RoundRect,0.250000X-0.625000X0.312500X-0.625000X-0.312500X0.625000X-0.312500X0.625000X0.312500X0*%
%ADD21RoundRect,0.152400X-0.900000X-1.600000X0.900000X-1.600000X0.900000X1.600000X-0.900000X1.600000X0*%
%ADD22RoundRect,0.250000X-1.500000X-1.000000X1.500000X-1.000000X1.500000X1.000000X-1.500000X1.000000X0*%
%ADD23RoundRect,0.152400X-1.100000X0.300000X-1.100000X-0.300000X1.100000X-0.300000X1.100000X0.300000X0*%
%ADD24RoundRect,0.152400X-0.900000X-0.650000X0.900000X-0.650000X0.900000X0.650000X-0.900000X0.650000X0*%
%ADD25RoundRect,0.152400X-0.800000X-1.000000X0.800000X-1.000000X0.800000X1.000000X-0.800000X1.000000X0*%
G04 APERTURE END LIST*
D10*
%TO.C,J3*%
X161181100Y-119633600D03*
X166181100Y-119633600D03*
%TD*%
D11*
%TO.C,C1*%
X130981100Y-106733600D03*
X130981100Y-112733600D03*
%TD*%
D12*
%TO.C,D1*%
X147281100Y-95633600D03*
X154681100Y-95633600D03*
%TD*%
D13*
%TO.C,L1*%
X126481100Y-97033600D03*
X142481100Y-97033600D03*
%TD*%
D14*
%TO.C,C6*%
X165475000Y-109750000D03*
X162525000Y-109750000D03*
%TD*%
D15*
%TO.C,C5*%
X139450000Y-107650000D03*
X139450000Y-109550000D03*
%TD*%
D10*
%TO.C,J1*%
X126681100Y-119633600D03*
X131681100Y-119633600D03*
%TD*%
%TO.C,J2*%
X136981100Y-119633600D03*
X141981100Y-119633600D03*
%TD*%
D16*
%TO.C,U$4*%
X153481100Y-122133600D03*
%TD*%
D17*
%TO.C,T1*%
X147081100Y-103273600D03*
X144541100Y-103273600D03*
X149621100Y-103273600D03*
%TD*%
D18*
%TO.C,R1*%
X146231100Y-118933600D03*
X148131100Y-118933600D03*
%TD*%
D16*
%TO.C,U$2*%
X126481100Y-88033600D03*
%TD*%
D19*
%TO.C,RSENSE0*%
X154081100Y-107333600D03*
X154081100Y-102933600D03*
%TD*%
D20*
%TO.C,REF\u002A\u002A*%
X134950000Y-106387500D03*
X134950000Y-109312500D03*
%TD*%
D21*
%TO.C,R2*%
X151581100Y-115733600D03*
X157181100Y-115733600D03*
%TD*%
D22*
%TO.C,C4*%
X160750000Y-98300000D03*
X167250000Y-98300000D03*
%TD*%
D18*
%TO.C,C3*%
X151431100Y-112633600D03*
X153331100Y-112633600D03*
%TD*%
D23*
%TO.C,IC1*%
X144381100Y-106428600D03*
X144381100Y-107698600D03*
X144381100Y-108968600D03*
X144381100Y-110238600D03*
X149581100Y-110238600D03*
X149581100Y-108968600D03*
X149581100Y-107698600D03*
X149581100Y-106428600D03*
%TD*%
D24*
%TO.C,VR1*%
X148681100Y-116333600D03*
D25*
X145781100Y-115033600D03*
D24*
X148681100Y-113733600D03*
%TD*%
D16*
%TO.C,U$3*%
X169771100Y-87933600D03*
%TD*%
D15*
%TO.C,C2*%
X141581100Y-107650000D03*
X141581100Y-109550000D03*
%TD*%
M02*
