M48
; DRILL file {KiCad 8.0.3} date 2024-07-18T23:12:00+0200
; FORMAT={-:-/ absolute / inch / decimal}
; #@! TF.CreationDate,2024-07-18T23:12:00+02:00
; #@! TF.GenerationSoftware,Kicad,Pcbnew,8.0.3
; #@! TF.FileFunction,Plated,1,2,PTH
FMAT,2
INCH
; #@! TA.AperFunction,Plated,PTH,ComponentDrill
T1C0.0256
; #@! TA.AperFunction,Plated,PTH,ComponentDrill
T2C0.0394
%
G90
G05
T1
X5.9032Y-3.935
X5.9252Y-4.0248
X5.926Y-3.8425
X5.9858Y-4.0953
X5.9862Y-3.774
X6.0701Y-3.7409
X6.0713Y-4.1295
X6.1614Y-3.7484
X6.1638Y-4.122
X6.2413Y-3.7957
X6.2413Y-4.0732
X6.287Y-3.8752
X6.289Y-3.9929
T2
X5.8524Y-3.6201
X5.9041Y-4.2579
X5.9524Y-3.6201
X6.0041Y-4.2579
X6.0524Y-3.6201
X6.1041Y-4.2579
X6.1524Y-3.6201
X6.2041Y-4.2579
X6.2524Y-3.6201
X6.3041Y-4.2579
X6.3524Y-3.6201
M30
