%TF.GenerationSoftware,KiCad,Pcbnew,8.0.3*%
%TF.CreationDate,2024-07-18T23:12:03+02:00*%
%TF.ProjectId,Z570M_patice,5a353730-4d5f-4706-9174-6963652e6b69,rev?*%
%TF.SameCoordinates,Original*%
%TF.FileFunction,Drillmap*%
%TF.FilePolarity,Positive*%
%FSLAX45Y45*%
G04 Gerber Fmt 4.5, Leading zero omitted, Abs format (unit mm)*
G04 Created by KiCad (PCBNEW 8.0.3) date 2024-07-18 23:12:03*
%MOMM*%
%LPD*%
G01*
G04 APERTURE LIST*
%ADD10C,0.050000*%
%ADD11C,0.200000*%
G04 APERTURE END LIST*
D10*
X14500000Y-9015000D02*
X16505000Y-9015000D01*
X16505000Y-10995000D01*
X14500000Y-10995000D01*
X14500000Y-9015000D01*
D11*
X14758277Y-11308984D02*
X14758277Y-11108984D01*
X14758277Y-11108984D02*
X14805896Y-11108984D01*
X14805896Y-11108984D02*
X14834467Y-11118508D01*
X14834467Y-11118508D02*
X14853515Y-11137555D01*
X14853515Y-11137555D02*
X14863039Y-11156603D01*
X14863039Y-11156603D02*
X14872562Y-11194698D01*
X14872562Y-11194698D02*
X14872562Y-11223269D01*
X14872562Y-11223269D02*
X14863039Y-11261365D01*
X14863039Y-11261365D02*
X14853515Y-11280412D01*
X14853515Y-11280412D02*
X14834467Y-11299460D01*
X14834467Y-11299460D02*
X14805896Y-11308984D01*
X14805896Y-11308984D02*
X14758277Y-11308984D01*
X14958277Y-11308984D02*
X14958277Y-11175650D01*
X14958277Y-11213746D02*
X14967801Y-11194698D01*
X14967801Y-11194698D02*
X14977324Y-11185174D01*
X14977324Y-11185174D02*
X14996372Y-11175650D01*
X14996372Y-11175650D02*
X15015420Y-11175650D01*
X15082086Y-11308984D02*
X15082086Y-11175650D01*
X15082086Y-11108984D02*
X15072562Y-11118508D01*
X15072562Y-11118508D02*
X15082086Y-11128031D01*
X15082086Y-11128031D02*
X15091610Y-11118508D01*
X15091610Y-11118508D02*
X15082086Y-11108984D01*
X15082086Y-11108984D02*
X15082086Y-11128031D01*
X15205896Y-11308984D02*
X15186848Y-11299460D01*
X15186848Y-11299460D02*
X15177324Y-11280412D01*
X15177324Y-11280412D02*
X15177324Y-11108984D01*
X15310658Y-11308984D02*
X15291610Y-11299460D01*
X15291610Y-11299460D02*
X15282086Y-11280412D01*
X15282086Y-11280412D02*
X15282086Y-11108984D01*
X15539229Y-11308984D02*
X15539229Y-11108984D01*
X15539229Y-11108984D02*
X15605896Y-11251841D01*
X15605896Y-11251841D02*
X15672562Y-11108984D01*
X15672562Y-11108984D02*
X15672562Y-11308984D01*
X15853515Y-11308984D02*
X15853515Y-11204222D01*
X15853515Y-11204222D02*
X15843991Y-11185174D01*
X15843991Y-11185174D02*
X15824943Y-11175650D01*
X15824943Y-11175650D02*
X15786848Y-11175650D01*
X15786848Y-11175650D02*
X15767801Y-11185174D01*
X15853515Y-11299460D02*
X15834467Y-11308984D01*
X15834467Y-11308984D02*
X15786848Y-11308984D01*
X15786848Y-11308984D02*
X15767801Y-11299460D01*
X15767801Y-11299460D02*
X15758277Y-11280412D01*
X15758277Y-11280412D02*
X15758277Y-11261365D01*
X15758277Y-11261365D02*
X15767801Y-11242317D01*
X15767801Y-11242317D02*
X15786848Y-11232793D01*
X15786848Y-11232793D02*
X15834467Y-11232793D01*
X15834467Y-11232793D02*
X15853515Y-11223269D01*
X15948753Y-11175650D02*
X15948753Y-11375650D01*
X15948753Y-11185174D02*
X15967801Y-11175650D01*
X15967801Y-11175650D02*
X16005896Y-11175650D01*
X16005896Y-11175650D02*
X16024943Y-11185174D01*
X16024943Y-11185174D02*
X16034467Y-11194698D01*
X16034467Y-11194698D02*
X16043991Y-11213746D01*
X16043991Y-11213746D02*
X16043991Y-11270888D01*
X16043991Y-11270888D02*
X16034467Y-11289936D01*
X16034467Y-11289936D02*
X16024943Y-11299460D01*
X16024943Y-11299460D02*
X16005896Y-11308984D01*
X16005896Y-11308984D02*
X15967801Y-11308984D01*
X15967801Y-11308984D02*
X15948753Y-11299460D01*
X16129705Y-11289936D02*
X16139229Y-11299460D01*
X16139229Y-11299460D02*
X16129705Y-11308984D01*
X16129705Y-11308984D02*
X16120182Y-11299460D01*
X16120182Y-11299460D02*
X16129705Y-11289936D01*
X16129705Y-11289936D02*
X16129705Y-11308984D01*
X16129705Y-11185174D02*
X16139229Y-11194698D01*
X16139229Y-11194698D02*
X16129705Y-11204222D01*
X16129705Y-11204222D02*
X16120182Y-11194698D01*
X16120182Y-11194698D02*
X16129705Y-11185174D01*
X16129705Y-11185174D02*
X16129705Y-11204222D01*
M02*
